<svg xmlns="http://www.w3.org/2000/svg" viewBox="0 0 100 100">
  <defs>
    <linearGradient id="solar-gradient" x1="0%" y1="0%" x2="100%" y2="100%">
      <stop offset="0%" style="stop-color:#f59e0b"/>
      <stop offset="100%" style="stop-color:#d97706"/>
    </linearGradient>
  </defs>
  <polygon points="50,5 93.3,27.5 93.3,72.5 50,95 6.7,72.5 6.7,27.5" fill="url(#solar-gradient)"/>
  <circle cx="50" cy="50" r="20" fill="#0a0a0f"/>
  <g fill="#f59e0b" opacity="0.9">
    <rect x="48" y="20" width="4" height="12" rx="2"/>
    <rect x="48" y="68" width="4" height="12" rx="2"/>
    <rect x="20" y="48" width="12" height="4" rx="2"/>
    <rect x="68" y="48" width="12" height="4" rx="2"/>
    <rect x="28" y="28" width="4" height="10" rx="2" transform="rotate(45 30 33)"/>
    <rect x="68" y="28" width="4" height="10" rx="2" transform="rotate(-45 70 33)"/>
    <rect x="28" y="62" width="4" height="10" rx="2" transform="rotate(-45 30 67)"/>
    <rect x="68" y="62" width="4" height="10" rx="2" transform="rotate(45 70 67)"/>
  </g>
</svg>
